<svg xmlns="http://www.w3.org/2000/svg" xmlns:xlink="http://www.w3.org/1999/xlink" viewBox="0 0 565.49 155.38"><defs><style>.cls-1{fill:none;}.cls-2{clip-path:url(#clip-path);}.cls-3{fill:url(#Gradient_bez_nazwy_37);}.cls-4{opacity:0.9;isolation:isolate;fill:url(#Gradient_bez_nazwy_35);}.cls-5{fill:#fff;}.cls-6{fill:#494e9f;}</style><clipPath id="clip-path" transform="translate(0.72 5.38)"><path class="cls-1" d="M33.11,0H116.2A35,35,0,0,1,128,2a33.25,33.25,0,0,1,21.44,26.13,40.67,40.67,0,0,1,.41,6.51v81a37.81,37.81,0,0,1-.64,7.74,33.36,33.36,0,0,1-22.56,25.08A35.37,35.37,0,0,1,116.14,150c-1.58,0-83.26,0-84.49-.06a33.41,33.41,0,0,1-16.88-5.57A33.89,33.89,0,0,1,3.35,131.25,33,33,0,0,1,0,116.66V33.34A31.2,31.2,0,0,1,3.11,19,33.31,33.31,0,0,1,14.42,5.8,32.77,32.77,0,0,1,31.24.12,9.54,9.54,0,0,1,33.11,0Z"/></clipPath><linearGradient id="Gradient_bez_nazwy_37" x1="-8843.25" y1="-6940.24" x2="-8814.92" y2="-7100.92" gradientTransform="translate(-8754.2 -6945.59) rotate(180)" gradientUnits="userSpaceOnUse"><stop offset="0" stop-color="#494e9f"/><stop offset="0.4" stop-color="#494e9f"/><stop offset="1" stop-color="#262952"/></linearGradient><linearGradient id="Gradient_bez_nazwy_35" x1="1917.01" y1="-1114.43" x2="1819.44" y2="-1212" gradientTransform="matrix(0.71, 0.71, -0.71, 0.71, -2087.2, -446.96)" gradientUnits="userSpaceOnUse"><stop offset="0" stop-color="#494e9f"/><stop offset="1" stop-color="#262952"/></linearGradient></defs><g id="Warstwa_2" data-name="Warstwa 2"><g id="Warstwa_1-2" data-name="Warstwa 1"><g class="cls-2"><path class="cls-3" d="M33.11,0H116.2A35,35,0,0,1,128,2a33.25,33.25,0,0,1,21.44,26.13,40.67,40.67,0,0,1,.41,6.51v81a37.81,37.81,0,0,1-.64,7.74,33.36,33.36,0,0,1-22.56,25.08A35.37,35.37,0,0,1,116.14,150c-1.58,0-83.26,0-84.49-.06a33.41,33.41,0,0,1-16.88-5.57A33.89,33.89,0,0,1,3.35,131.25,33,33,0,0,1,0,116.66V33.34A31.2,31.2,0,0,1,3.11,19,33.31,33.31,0,0,1,14.42,5.8,32.77,32.77,0,0,1,31.24.12,9.54,9.54,0,0,1,33.11,0Z" transform="translate(0.72 5.38)"/><path class="cls-4" d="M60,133.33a143.37,143.37,0,0,1-24.25-19.56C-.67,77.39-11.64,29.38,11.2,6.54S82.05-5.33,118.43,31.05a143.5,143.5,0,0,1,19.82,24.66C97.13,67.58,62.24,109.56,60,133.33Z" transform="translate(0.72 5.38)"/><path class="cls-5" d="M60,133.34c1.95-9.21,11.62-30.33,27.92-32.25,5.76,3.33,11.16,5.3,16,3.3l4.57,2.79.2-5.08a5.83,5.83,0,0,0,3-2.81c3.42-6.88.22-14.22-4.53-20.37,5.59-13,23-21.25,31.11-23.22a16.12,16.12,0,0,0-15.84-5.81l4.13-4c-6.48-4.49-16.16-2.69-18.66-.27l2.8-4.53c-6.89-1.94-15.26,2.21-20.51,10.2a19.55,19.55,0,0,0-3.37,12.92c-3.95-1-7.83-1.6-11.23-3.51C63.29,53.8,62.23,46.91,53.8,37.6c-4.9-5.42-10.12-8.46-13.89-8.17a10.35,10.35,0,0,0,1.42,4.47c-9.84-6.13-18.06-5.51-18.06-5.51S25,36,32.43,43.79a18.71,18.71,0,0,0-6-1c-.18,2.87,3.77,10.09,12.16,14.73C47.25,62.32,56.17,63.2,65.32,72a28.9,28.9,0,0,0,3.39,9.58,19.15,19.15,0,0,0-14.89,2.65c-8,5.07-11.9,13.45-9.67,20.54l4.51-2.7c-2.37,2.47-3.88,12.26.92,19L53.5,117A17.44,17.44,0,0,0,60,133.34Z" transform="translate(0.72 5.38)"/><path class="cls-1" d="M33.11,0H116.2A35,35,0,0,1,128,2a33.25,33.25,0,0,1,21.44,26.13,40.67,40.67,0,0,1,.41,6.51v81a37.81,37.81,0,0,1-.64,7.74,33.36,33.36,0,0,1-22.56,25.08A35.37,35.37,0,0,1,116.14,150c-1.58,0-83.26,0-84.49-.06a33.41,33.41,0,0,1-16.88-5.57A33.89,33.89,0,0,1,3.35,131.25,33,33,0,0,1,0,116.66V33.34A31.2,31.2,0,0,1,3.11,19,33.31,33.31,0,0,1,14.42,5.8,32.77,32.77,0,0,1,31.24.12,9.54,9.54,0,0,1,33.11,0Z" transform="translate(0.72 5.38)"/><path class="cls-1" d="M33.11,0H116.2A35,35,0,0,1,128,2a33.25,33.25,0,0,1,21.44,26.13,40.67,40.67,0,0,1,.41,6.51v81a37.81,37.81,0,0,1-.64,7.74,33.36,33.36,0,0,1-22.56,25.08A35.37,35.37,0,0,1,116.14,150c-1.58,0-83.26,0-84.49-.06a33.41,33.41,0,0,1-16.88-5.57A33.89,33.89,0,0,1,3.35,131.25,33,33,0,0,1,0,116.66V33.34A31.2,31.2,0,0,1,3.11,19,33.31,33.31,0,0,1,14.42,5.8,32.77,32.77,0,0,1,31.24.12,9.54,9.54,0,0,1,33.11,0Z" transform="translate(0.72 5.38)"/><polygon class="cls-5" points="103.5 109.67 109.57 113.33 109.86 106.33 103.5 109.67"/></g><path class="cls-6" d="M215.1,84.65H193.61L188.84,98.1H178.49L199.1,43.26h10.51L230.15,98.1H219.88Zm-2.94-8.44-7.8-22.12-7.8,22.12Z" transform="translate(0.72 5.38)"/><path class="cls-6" d="M271.22,82.74H242.48c1,5.17,5,7.8,10.51,7.8a12.36,12.36,0,0,0,10.11-4.62l6.13,4.7c-3.42,5.41-10,8.28-16.72,8.28-11.14,0-19.58-7.8-19.58-19.42,0-11.86,8.92-19.34,19.5-19.34s19,7.4,19,19A30.92,30.92,0,0,1,271.22,82.74Zm-9-6.45c-.55-5.09-4.45-8-9.63-8-5,0-9,2.39-10.11,8Z" transform="translate(0.72 5.38)"/><path class="cls-6" d="M317.54,60.93V92.85c0,16.72-8.11,24-20.85,24A19.23,19.23,0,0,1,279.1,105.9l7.64-3.5a11.35,11.35,0,0,0,9.95,6c7.16,0,11.62-4.14,11.62-14.72v-.56C305.68,97,300.51,98.9,296,98.9c-9.79,0-18.3-7.56-18.3-19.42s8.43-19.34,18.22-19.34c4.78,0,9.79,1.83,12.42,5.65V60.93ZM308.15,79.4a10.67,10.67,0,0,0-10.74-10.67A10.37,10.37,0,0,0,287,79.4a10.5,10.5,0,0,0,10.43,10.82A10.61,10.61,0,0,0,308.15,79.4Z" transform="translate(0.72 5.38)"/><path class="cls-6" d="M327.1,47.8a5.81,5.81,0,0,1,6-5.65,5.66,5.66,0,1,1,0,11.3A5.87,5.87,0,0,1,327.1,47.8Zm1.43,13.13h9.23V98.1h-9.23Z" transform="translate(0.72 5.38)"/><path class="cls-6" d="M369.2,68.33h-7.88V98.1h-9.23V68.33H345.4v-7.4h6.69V47.24h9.23V60.93h7.88Z" transform="translate(0.72 5.38)"/><path class="cls-6" d="M412,77.25V98.1h-9.24v-20c0-5.89-3.58-8.91-7.72-8.91s-9.47,2.31-9.47,9.47V98.1h-9.23V41h9.23V66.58c1.83-4.45,7.8-6.44,11.54-6.44C406.61,60.14,412,66.42,412,77.25Z" transform="translate(0.72 5.38)"/><path class="cls-6" d="M460.1,60.93V98.1h-9.23v-5c-2.55,4-7.8,5.81-12.34,5.81-9.79,0-18.31-7.56-18.31-19.42s8.44-19.34,18.23-19.34c4.7,0,9.87,1.83,12.42,5.73V60.93ZM450.71,79.4A10.67,10.67,0,0,0,440,68.73,10.37,10.37,0,0,0,429.54,79.4,10.5,10.5,0,0,0,440,90.22,10.61,10.61,0,0,0,450.71,79.4Z" transform="translate(0.72 5.38)"/><path class="cls-6" d="M471.09,41h9.23V98.1h-9.23Z" transform="translate(0.72 5.38)"/><path class="cls-6" d="M489,79.4c0-11.78,9.15-19.26,19.74-19.26s19.82,7.48,19.82,19.26-9.24,19.5-19.82,19.5S489,91.18,489,79.4Zm30.24,0a10.47,10.47,0,1,0-20.93,0c0,6.52,4.7,10.9,10.43,10.9S519.24,85.92,519.24,79.4Z" transform="translate(0.72 5.38)"/><path class="cls-6" d="M534.69,86.48h8.67c0,2.55,2.23,4.94,6.13,4.94,3.66,0,6-1.67,6-4.06,0-2.07-1.59-3-4.38-3.66l-4.93-1.28c-8.36-2.23-10.51-6.68-10.51-11.38,0-5.81,5.73-10.9,13.85-10.9,6.61,0,14.09,3.26,14,11.62h-8.83c0-2.63-2.31-4.22-4.94-4.22-2.86,0-4.85,1.59-4.85,3.9,0,1.91,1.83,3,4,3.5l6,1.59c8.36,2.15,9.87,7.4,9.87,10.83,0,7.56-7.56,11.54-15.12,11.54C542.25,98.9,534.85,94.44,534.69,86.48Z" transform="translate(0.72 5.38)"/></g></g></svg>